<?xml version="1.0" encoding="iso-8859-1"?>
<!-- Uploaded to: SVG Repo, www.svgrepo.com, Generator: SVG Repo Mixer Tools -->
<!DOCTYPE svg PUBLIC "-//W3C//DTD SVG 1.1//EN" "http://www.w3.org/Graphics/SVG/1.1/DTD/svg11.dtd">
<svg fill="#000000" height="800px" width="800px" version="1.1" id="Capa_1" xmlns="http://www.w3.org/2000/svg" xmlns:xlink="http://www.w3.org/1999/xlink" 
	 viewBox="0 0 511 511" xml:space="preserve">
<g>
	<path d="M436.166,74.834C387.908,26.577,323.747,0,255.5,0S123.092,26.577,74.834,74.834C26.577,123.092,0,187.253,0,255.5
		s26.577,132.408,74.834,180.666C123.092,484.423,187.253,511,255.5,511s132.408-26.577,180.666-74.834
		C484.423,387.908,511,323.747,511,255.5S484.423,123.092,436.166,74.834z M15.567,239H55.5c4.142,0,7.5-3.358,7.5-7.5
		s-3.358-7.5-7.5-7.5H17.046c6.8-52.301,30.482-100.646,68.395-138.559c2.24-2.24,4.527-4.416,6.838-6.556l19.918,19.918
		c1.464,1.464,3.384,2.197,5.303,2.197s3.839-0.732,5.303-2.197c2.929-2.929,2.929-7.677,0-10.606l-19.191-19.191
		C144.488,35.589,194.759,16.748,248,15.127V31.5c0,4.142,3.358,7.5,7.5,7.5s7.5-3.358,7.5-7.5V15.127
		c53.241,1.621,103.512,20.462,144.388,53.878l-21.191,21.191c-2.929,2.929-2.929,7.677,0,10.606
		c1.464,1.464,3.384,2.197,5.303,2.197s3.839-0.732,5.303-2.197l21.918-21.918c2.311,2.14,4.598,4.316,6.838,6.556
		c37.913,37.913,61.594,86.258,68.395,138.559H455.5c-4.142,0-7.5,3.358-7.5,7.5s3.358,7.5,7.5,7.5h39.933
		c0.368,5.468,0.567,10.968,0.567,16.5c0,8.259-0.421,16.452-1.238,24.561c-1.453-2.064-3.01-4.2-4.647-6.343
		C476.887,256.412,465.565,248,455.5,248c-13.784,0-26.392,15.581-39.741,32.077c-5.458,6.745-10.613,13.115-15.393,17.793
		c-6.089,5.958-8.6,6.13-8.866,6.13c-4.498,0-13.994-10.696-19.095-16.442C364.387,278.525,358.593,272,351.5,272
		c-6.186,0-12.068,5.742-25.174,19.72l-13.523-13.523c-2.929-2.929-7.678-2.929-10.606,0c-2.929,2.929-2.929,7.677,0,10.606
		l13.818,13.818c-7.755,8.002-16.879,16.771-20.611,17.379H263v-16.5c0-4.142-3.358-7.5-7.5-7.5s-7.5,3.358-7.5,7.5V320h-64.5
		c-1.149,0-2.747-0.243-4.836-1.057l30.139-30.14c2.929-2.929,2.929-7.677,0-10.606c-2.929-2.929-7.678-2.929-10.606,0
		l-32.249,32.249c-3.111-2.758-6.63-6.283-10.595-10.786c-10.683-12.134-20.209-26.361-25.902-34.862
		c-1.618-2.416-2.895-4.323-3.848-5.657c-8.871-12.419-28.474-11.29-30.678-11.118c-2.366,0.182-4.507,1.473-5.771,3.481
		c-17.833,28.323-49.845,68.156-65.455,68.488C17.962,299.252,15,277.604,15,255.5C15,249.968,15.199,244.468,15.567,239z
		 M479.258,343.975c-5.344-0.273-10.741-9.472-14.698-16.229C459.819,319.648,455.341,312,447.5,312
		c-5.099,0-11.673,4.085-29.16,15.758c-8.611,5.748-22.948,15.319-27.066,16.235c-2.712-0.168-5.192-3.339-8.896-8.473
		c-4.727-6.55-11.2-15.521-22.877-15.521c-12.569,0-17.603,12.734-22.044,23.97c-2.674,6.765-6.337,16.03-9.956,16.03
		c-3.99,0-5.119-0.834-7.368-2.495c-3.146-2.323-7.454-5.505-16.631-5.505c-5.188,0-8.667,3.022-11.206,5.229
		c-2.315,2.011-3.328,2.771-4.792,2.771H239.5c-3.809,0-9.812-4.303-14.636-7.761C218.697,347.818,213.37,344,207.5,344
		c-5.451,0-10.311,3.104-15.938,6.699C184.738,355.059,177.003,360,167.5,360c-22.4,0-32.789-10.266-41.955-19.324
		C118.948,334.157,112.717,328,103.5,328c-6.726,0-13.469,5.525-22.801,13.172C70.461,349.561,57.721,360,47.5,360h-8.086
		c-0.213,0-0.422,0.015-0.63,0.032c-4.01-8.297-7.531-16.817-10.55-25.525c12.757-2.544,28.223-15.125,47.081-38.27
		c11.111-13.636,20.239-27.102,24.291-33.271c4.809,0.237,11.351,1.475,13.792,4.894c0.821,1.149,2.043,2.974,3.59,5.285
		C137.469,303.731,161.388,335,183.5,335h112c10.15,0,21.848-11.724,39.906-31.033c5.451-5.828,12.647-13.522,16.286-16.322
		c2.461,1.948,6.597,6.607,9.495,9.872C370.127,307.586,380.26,319,391.5,319c12.059,0,23.117-13.665,35.92-29.487
		C435.963,278.955,448.874,263,455.5,263c7.825,0,24.507,19.968,35.948,39.429C488.644,316.678,484.555,330.569,479.258,343.975z
		 M114.417,450.317c5.795-2.951,14.489-7.318,24.336-12.059c6.154-2.963,17.761,4.498,28,11.081
		c10.485,6.741,21.309,13.7,31.679,13.699c0.534,0,1.069-0.019,1.601-0.057c10.115-0.722,22.424-10.659,38.008-23.239
		C256.114,425.155,278.604,407,295.5,407c5.637,0,16.08,7.04,27.136,14.494c17.759,11.972,41.075,27.686,69.148,32.225
		C351.996,481.198,304.889,496,255.5,496C204.11,496,155.19,479.976,114.417,450.317z M425.559,425.559
		c-5.175,5.175-10.553,10.07-16.099,14.708c-0.626-0.169-1.281-0.268-1.96-0.268c-30.579,0-56.03-17.157-76.479-30.944
		C316.886,399.527,305.721,392,295.5,392c-22.195,0-45.935,19.163-66.879,36.07c-10.796,8.715-24.232,19.562-29.655,19.949
		c-5.876,0.414-15.556-5.806-24.1-11.298c-13.548-8.71-28.901-18.582-42.62-11.979c-14.703,7.08-26.885,13.343-30.854,15.4
		c-5.494-4.602-10.823-9.455-15.951-14.583C70.146,410.264,57.175,393.265,46.683,375H47.5c15.582,0,30.622-12.323,42.706-22.226
		c4.7-3.851,11.104-9.098,13.512-9.769c3.015,0.169,6.677,3.787,11.285,8.34C124.534,360.766,138.939,375,167.5,375
		c13.885,0,24.435-6.739,32.137-11.66c2.723-1.74,6.433-4.109,7.786-4.33c1.667,0.377,5.888,3.403,8.702,5.42
		C223.037,369.385,230.871,375,239.5,375h48.003c7.209,0,11.675-3.88,14.63-6.448c0.609-0.529,1.408-1.223,1.886-1.547
		c3.82,0.069,4.981,0.926,7.202,2.566c3.102,2.292,7.351,5.429,16.279,5.429c13.819,0,19.412-14.148,23.906-25.517
		c1.858-4.701,5.725-14.483,8.094-14.483c3.609,0,6.153,2.978,10.713,9.298C374.94,350.848,380.822,359,391.5,359
		c6.388,0,15.622-5.718,35.168-18.766c6.815-4.549,15.8-10.547,20.052-12.638c1.429,1.809,3.453,5.266,4.895,7.729
		c4.911,8.387,11.347,19.373,21.581,22.686C461.51,382.784,445.503,405.615,425.559,425.559z"/>
	<path d="M183,191.5c0-17.369-14.131-31.5-31.5-31.5c-1.387,0-2.789,0.108-4.222,0.327c-0.396-0.454-0.809-0.89-1.22-1.327h26.336
		l25.803,25.803c1.464,1.464,3.384,2.197,5.303,2.197s3.839-0.732,5.303-2.197c2.929-2.929,2.929-7.677,0-10.606L193.606,159H223.5
		c4.142,0,7.5-3.358,7.5-7.5c0-26.191-21.309-47.5-47.5-47.5c-11.859,0-22.976,4.337-31.73,12.298
		c-0.327-0.044-0.643-0.065-0.965-0.1l-10.001-10.001c-2.929-2.929-7.678-2.929-10.606,0c-2.929,2.929-2.929,7.677,0,10.606
		l2.461,2.461c-9.996,4.621-17.493,13.751-19.861,24.771c-0.432-0.012-0.863-0.035-1.296-0.035
		c-13.768,0-26.799,6.022-35.778,16.327C74.289,160.108,72.887,160,71.5,160C54.131,160,40,174.131,40,191.5
		c0,4.142,3.358,7.5,7.5,7.5h128C179.642,199,183,195.642,183,191.5z M147.5,131c1.475,0,3.04,0.218,4.926,0.687
		c2.651,0.658,5.453-0.178,7.31-2.184C166.008,122.73,174.447,119,183.5,119c15.34,0,28.232,10.683,31.626,25h-39.624
		c-0.002,0-0.003,0-0.005,0H128.42C131.42,136.396,138.842,131,147.5,131z M56.805,184c2.735-5.338,8.295-9,14.695-9
		c1.482,0,3.046,0.275,4.923,0.868c3.13,0.987,6.539-0.176,8.413-2.87C90.933,164.233,100.901,159,111.5,159
		s20.567,5.233,26.665,13.998c1.874,2.694,5.282,3.856,8.413,2.87c1.877-0.592,3.441-0.868,4.923-0.868
		c6.399,0,11.959,3.662,14.695,9H56.805z"/>
	<path d="M200,231.5c0,30.603,24.897,55.5,55.5,55.5s55.5-24.897,55.5-55.5S286.103,176,255.5,176S200,200.897,200,231.5z
		 M296,231.5c0,22.332-18.168,40.5-40.5,40.5S215,253.832,215,231.5s18.168-40.5,40.5-40.5S296,209.168,296,231.5z"/>
	<path d="M255.5,167c4.142,0,7.5-3.358,7.5-7.5v-104c0-4.142-3.358-7.5-7.5-7.5s-7.5,3.358-7.5,7.5v104
		C248,163.642,251.358,167,255.5,167z"/>
	<path d="M431.5,224h-104c-4.142,0-7.5,3.358-7.5,7.5s3.358,7.5,7.5,7.5h104c4.142,0,7.5-3.358,7.5-7.5S435.642,224,431.5,224z"/>
	<path d="M183.5,224h-104c-4.142,0-7.5,3.358-7.5,7.5s3.358,7.5,7.5,7.5h104c4.142,0,7.5-3.358,7.5-7.5S187.642,224,183.5,224z"/>
	<path d="M307.5,187c1.919,0,3.839-0.732,5.303-2.197l36-36c2.929-2.929,2.929-7.677,0-10.606c-2.929-2.929-7.678-2.929-10.606,0
		l-36,36c-2.929,2.929-2.929,7.677,0,10.606C303.661,186.268,305.581,187,307.5,187z"/>
	<path d="M359.5,135c1.919,0,3.839-0.732,5.303-2.197l16-16c2.929-2.929,2.929-7.677,0-10.606c-2.929-2.929-7.678-2.929-10.606,0
		l-16,16c-2.929,2.929-2.929,7.677,0,10.606C355.661,134.268,357.581,135,359.5,135z"/>
	<path d="M344,199.5c0,4.142,3.358,7.5,7.5,7.5h104c4.142,0,7.5-3.358,7.5-7.5c0-26.191-21.309-47.5-47.5-47.5
		c-11.859,0-22.976,4.337-31.73,12.298c-1.466-0.199-2.882-0.298-4.27-0.298C359.925,164,344,179.925,344,199.5z M384.426,179.687
		c2.653,0.657,5.453-0.178,7.31-2.184C398.008,170.73,406.447,167,415.5,167c15.34,0,28.232,10.683,31.626,25H360.42
		c3-7.604,10.422-13,19.08-13C380.975,179,382.54,179.218,384.426,179.687z"/>
</g>
</svg>